{"title":"The Book of Eli 2010 720p Esub BluRay Dual Audio English Hindi G","magnet":"magnet:?xt=urn:btih:bfbede5dfe8e3c44fc6638cf83664601f4e21173&dn=The+Book+of+Eli+2010+720p+Esub+BluRay+Dual+Audio+English+Hindi+G&tr=udp%3A%2F%2Ftracker.leechers-paradise.org%3A6969&tr=udp%3A%2F%2Fzer0day.ch%3A1337&tr=udp%3A%2F%2Fopen.demonii.com%3A1337&tr=udp%3A%2F%2Ftracker.coppersurfer.tk%3A6969&tr=udp%3A%2F%2Fexodus.desync.com%3A6969","uploader":"jatt13","categoryP":"video","categoryS":"movies","size":"629020543","seeders":"1","leechers":"78","description":"[center][img]http://i.imgur.com/XJ0vWXW.jpg[/img]\r\n[img]http://i.imgur.com/537AhTY.png[/img]\r\nGeneral\r\nUnique ID                      : 181823002134314360246...............\r\nComplete name                  : F:DUB2010The Book of Eli 2010 720p Esub BluRay Dual Audio English Hindi GOPISAHI\r\nFormat                         : Matroska\r\nFormat version                 : Version 4 / Version 2\r\nFile size                      : 600 MiB\r\nDuration                       : 1 h 50 min\r\nOverall bit rate               : 761 kb/s\r\nMovie name                     : The Book of Eli 2010\r\n\r\nVideo\r\nFormat                         : AVC\r\nCodec ID                       : V_MPEG4/ISO/AVC\r\nDuration                       : 1 h 50 min\r\nBit rate                       : 595 kb/s\r\nWidth                          : 1 280 pixels\r\nHeight                         : 536 pixels\r\nDisplay aspect ratio           : 2.40:1\r\nFrame rate mode                : Constant\r\nFrame rate                     : 23.976 FPS\r\nStream size                    : 469 MiB (78%)\r\nLanguage                       : English\r\n\r\nAudio #1\r\nFormat                         : AAC\r\nDuration                       : 1 h 50 min\r\nBit rate                       : 78.4 kb/s\r\nChannel(s)                     : 6 channels\r\nChannel positions              : Front: L C R, Side: L R, LFE\r\nSampling rate                  : 44.1 kHz\r\nFrame rate                     : 43.066 FPS (1024 SPF)\r\nStream size                    : 61.9 MiB (10%)\r\nLanguage                       : English\r\n\r\nAudio #2\r\nFormat                         : AAC\r\nDuration                       : 1 h 48 min\r\nBit rate                       : 85.6 kb/s\r\nChannel(s)                     : 6 channels\r\nChannel positions              : Front: L C R, Side: L R, LFE\r\nSampling rate                  : 44.1 kHz\r\nFrame rate                     : 43.066 FPS (1024 SPF)\r\nStream size                    : 66.6 MiB (11%)\r\nLanguage                       : Hindi\r\n\r\nText\r\nLanguage                       : English\r\n[img]http://i.imgur.com/IvsSRUf.jpg[/img]\r\n[img]http://i.imgur.com/IfliSTD.jpg[/img]\r\n[img]http://i.imgur.com/m3EHBxV.jpg[/img]\r\n[img]http://i.imgur.com/LUxB8ll.jpg[/img]\r\n[img]http://i.imgur.com/qJ9eMNR.jpg[/img]\r\n[img]http://i.imgur.com/sGBMIuZ.jpg[/img][/center]","last_updated":"2017-08-28T13:10:59.526Z","parsed":{"xt":"urn:btih:bfbede5dfe8e3c44fc6638cf83664601f4e21173","dn":"The Book of Eli 2010 720p Esub BluRay Dual Audio English Hindi G","tr":["udp://exodus.desync.com:6969","udp://open.demonii.com:1337","udp://tracker.coppersurfer.tk:6969","udp://tracker.leechers-paradise.org:6969","udp://zer0day.ch:1337"],"infoHash":"bfbede5dfe8e3c44fc6638cf83664601f4e21173","infoHashBuffer":{"type":"Buffer","data":[191,190,222,93,254,142,60,68,252,102,56,207,131,102,70,1,244,226,17,115]},"name":"The Book of Eli 2010 720p Esub BluRay Dual Audio English Hindi G","announce":["udp://exodus.desync.com:6969","udp://open.demonii.com:1337","udp://tracker.coppersurfer.tk:6969","udp://tracker.leechers-paradise.org:6969","udp://zer0day.ch:1337"],"urlList":[]}}